<?xml version="1.0" standalone="no"?>
<!DOCTYPE svg PUBLIC "-//W3C//DTD SVG 1.1//EN"
"http://www.w3.org/Graphics/SVG/1.1/DTD/svg11.dtd">

<svg width="650" height="644" view_box="0 0 650 644"
xmlns="http://www.w3.org/2000/svg"
xmlns:link="http://www.w3.org/1999/xlink">\n\n<desc>Généré par Mocodo 2.3.7 le Wed, 19 May 2021 01:40:22</desc>

<rect id="frame" x="0" y="0" width="650" height="644" fill="#f5f5f5" stroke="none" stroke-width="0"/>

<!-- Association rédige -->
<line x1="297" y1="314" x2="297" y2="542" stroke="#35978f" stroke-width="2"/>
<text x="271.0" y="441" fill="#8c510a" font-family="Verdana" font-size="12">1,1</text>
<line x1="165" y1="542" x2="297" y2="542" stroke="#35978f" stroke-width="2"/>
<text x="220" y="559.0" fill="#8c510a" font-family="Verdana" font-size="12">0,N</text>
<g id="association-rédige">
	<path d="M 310 517 a 14 14 90 0 1 14 14 V 542 h -54 V 531 a 14 14 90 0 1 14 -14" fill="#80cdc1" stroke="#80cdc1" stroke-width="0"/>
	<path d="M 324 542.0 v 11 a 14 14 90 0 1 -14 14 H 284 a 14 14 90 0 1 -14 -14 V 542.0 H 54" fill="#c7eae5" stroke="#c7eae5" stroke-width="0"/>
	<rect x="270" y="517" width="54" height="50" fill="none" rx="14" stroke="#35978f" stroke-width="2"/>
	<line x1="270" y1="542" x2="324" y2="542" stroke="#35978f" stroke-width="1"/>
	<text x="277" y="534.7" fill="#000000" font-family="Verdana" font-size="12">rédige</text>
</g>

<!-- Association valide -->
<line x1="297" y1="314" x2="165" y2="314" stroke="#35978f" stroke-width="2"/>
<text x="197" y="331.0" fill="#8c510a" font-family="Verdana" font-size="12">1,1</text>
<line x1="165" y1="542" x2="165" y2="314" stroke="#35978f" stroke-width="2"/>
<text x="170.0" y="441" fill="#8c510a" font-family="Verdana" font-size="12">0,N</text>
<g id="association-valide">
	<path d="M 177 289 a 14 14 90 0 1 14 14 V 314 h -52 V 303 a 14 14 90 0 1 14 -14" fill="#80cdc1" stroke="#80cdc1" stroke-width="0"/>
	<path d="M 191 314.0 v 11 a 14 14 90 0 1 -14 14 H 153 a 14 14 90 0 1 -14 -14 V 314.0 H 52" fill="#c7eae5" stroke="#c7eae5" stroke-width="0"/>
	<rect x="139" y="289" width="52" height="50" fill="none" rx="14" stroke="#35978f" stroke-width="2"/>
	<line x1="139" y1="314" x2="191" y2="314" stroke="#35978f" stroke-width="1"/>
	<text x="146" y="306.7" fill="#000000" font-family="Verdana" font-size="12">valide</text>
</g>

<!-- Association compose -->
<line x1="297" y1="314" x2="165" y2="94" stroke="#35978f" stroke-width="2"/>
<text x="231.354332991" y="196" fill="#8c510a" font-family="Verdana" font-size="12">1,N</text>
<line x1="54" y1="94" x2="165" y2="94" stroke="#35978f" stroke-width="2"/>
<text x="104" y="111.0" fill="#8c510a" font-family="Verdana" font-size="12">0,N</text>
<g id="association-compose">
	<path d="M 185 60 a 14 14 90 0 1 14 14 V 85 h -68 V 74 a 14 14 90 0 1 14 -14" fill="#80cdc1" stroke="#80cdc1" stroke-width="0"/>
	<path d="M 199 85.0 v 29 a 14 14 90 0 1 -14 14 H 145 a 14 14 90 0 1 -14 -14 V 85.0 H 68" fill="#c7eae5" stroke="#c7eae5" stroke-width="0"/>
	<rect x="131" y="60" width="68" height="68" fill="none" rx="14" stroke="#35978f" stroke-width="2"/>
	<line x1="131" y1="85" x2="199" y2="85" stroke="#35978f" stroke-width="1"/>
	<text x="138" y="77.7" fill="#000000" font-family="Verdana" font-size="12">compose</text>
	<text x="138" y="102.8" fill="#000000" font-family="Verdana" font-size="12">quantité</text>
	<text x="138" y="119.8" fill="#000000" font-family="Verdana" font-size="12">unité</text>
</g>

<!-- Association écrit -->
<line x1="443" y1="94" x2="578" y2="94" stroke="#35978f" stroke-width="2"/>
<text x="500" y="111.0" fill="#8c510a" font-family="Verdana" font-size="12">1,1</text>
<line x1="578" y1="314" x2="578" y2="94" stroke="#35978f" stroke-width="2"/>
<text x="583.0" y="247" fill="#8c510a" font-family="Verdana" font-size="12">0,N</text>
<g id="association-écrit">
	<path d="M 585 69 a 14 14 90 0 1 14 14 V 94 h -42 V 83 a 14 14 90 0 1 14 -14" fill="#80cdc1" stroke="#80cdc1" stroke-width="0"/>
	<path d="M 599 94.0 v 11 a 14 14 90 0 1 -14 14 H 571 a 14 14 90 0 1 -14 -14 V 94.0 H 42" fill="#c7eae5" stroke="#c7eae5" stroke-width="0"/>
	<rect x="557" y="69" width="42" height="50" fill="none" rx="14" stroke="#35978f" stroke-width="2"/>
	<line x1="557" y1="94" x2="599" y2="94" stroke="#35978f" stroke-width="1"/>
	<text x="564" y="86.7" fill="#000000" font-family="Verdana" font-size="12">écrit</text>
</g>

<!-- Association propose -->
<line x1="297" y1="314" x2="297" y2="94" stroke="#35978f" stroke-width="2"/>
<text x="302.0" y="196" fill="#8c510a" font-family="Verdana" font-size="12">1,1</text>
<line x1="443" y1="94" x2="297" y2="94" stroke="#35978f" stroke-width="2"/>
<text x="364" y="111.0" fill="#8c510a" font-family="Verdana" font-size="12">0,N</text>
<g id="association-propose">
	<path d="M 315 69 a 14 14 90 0 1 14 14 V 94 h -64 V 83 a 14 14 90 0 1 14 -14" fill="#80cdc1" stroke="#80cdc1" stroke-width="0"/>
	<path d="M 329 94.0 v 11 a 14 14 90 0 1 -14 14 H 279 a 14 14 90 0 1 -14 -14 V 94.0 H 64" fill="#c7eae5" stroke="#c7eae5" stroke-width="0"/>
	<rect x="265" y="69" width="64" height="50" fill="none" rx="14" stroke="#35978f" stroke-width="2"/>
	<line x1="265" y1="94" x2="329" y2="94" stroke="#35978f" stroke-width="1"/>
	<text x="272" y="86.7" fill="#000000" font-family="Verdana" font-size="12">propose</text>
</g>

<!-- Association est -->
<line x1="297" y1="314" x2="443" y2="542" stroke="#35978f" stroke-width="2"/>
<text x="345.367975069" y="441" fill="#8c510a" font-family="Verdana" font-size="12">1,N</text>
<line x1="578" y1="542" x2="443" y2="542" stroke="#35978f" stroke-width="2"/>
<text x="512" y="559.0" fill="#8c510a" font-family="Verdana" font-size="12">0,N</text>
<g id="association-est">
	<path d="M 446 517 a 14 14 90 0 1 14 14 V 542 h -34 V 531 a 14 14 90 0 1 14 -14" fill="#80cdc1" stroke="#80cdc1" stroke-width="0"/>
	<path d="M 460 542.0 v 11 a 14 14 90 0 1 -14 14 H 440 a 14 14 90 0 1 -14 -14 V 542.0 H 34" fill="#c7eae5" stroke="#c7eae5" stroke-width="0"/>
	<rect x="426" y="517" width="34" height="50" fill="none" rx="14" stroke="#35978f" stroke-width="2"/>
	<line x1="426" y1="542" x2="460" y2="542" stroke="#35978f" stroke-width="1"/>
	<text x="433" y="534.7" fill="#000000" font-family="Verdana" font-size="12">est</text>
</g>

<!-- Association commente -->
<line x1="578" y1="314" x2="443" y2="314" stroke="#35978f" stroke-width="2"/>
<text x="489" y="331.0" fill="#8c510a" font-family="Verdana" font-size="12">1,1</text>
<line x1="297" y1="314" x2="443" y2="314" stroke="#35978f" stroke-width="2"/>
<text x="376" y="306.0" fill="#8c510a" font-family="Verdana" font-size="12">0,N</text>
<g id="association-commente">
	<path d="M 469 289 a 14 14 90 0 1 14 14 V 314 h -80 V 303 a 14 14 90 0 1 14 -14" fill="#80cdc1" stroke="#80cdc1" stroke-width="0"/>
	<path d="M 483 314.0 v 11 a 14 14 90 0 1 -14 14 H 417 a 14 14 90 0 1 -14 -14 V 314.0 H 80" fill="#c7eae5" stroke="#c7eae5" stroke-width="0"/>
	<rect x="403" y="289" width="80" height="50" fill="none" rx="14" stroke="#35978f" stroke-width="2"/>
	<line x1="403" y1="314" x2="483" y2="314" stroke="#35978f" stroke-width="1"/>
	<text x="410" y="306.7" fill="#000000" font-family="Verdana" font-size="12">commente</text>
</g>

<!-- Entity Recette -->
<g id="entity-Recette">
	<g id="frame-Recette">
		<rect x="223" y="204" width="148" height="25" fill="#dfc27d" stroke="#dfc27d" stroke-width="0"/>
		<rect x="223" y="229.0" width="148" height="195" fill="#f6e8c3" stroke="#f6e8c3" stroke-width="0"/>
		<rect x="223" y="204" width="148" height="220" fill="none" stroke="#bf812d" stroke-width="2"/>
		<line x1="223" y1="229" x2="371" y2="229" stroke="#bf812d" stroke-width="1"/>
	</g>
	<text x="273" y="221.7" fill="#000000" font-family="Verdana" font-size="12">Recette</text>
	<text x="228" y="246.7" fill="#000000" font-family="Verdana" font-size="12">id_recette</text>
	<line x1="228" y1="249" x2="290" y2="249" stroke="#000000" stroke-width="1"/>
	<text x="228" y="263.7" fill="#000000" font-family="Verdana" font-size="12">nom</text>
	<text x="228" y="280.7" fill="#000000" font-family="Verdana" font-size="12">statut</text>
	<text x="228" y="297.7" fill="#000000" font-family="Verdana" font-size="12">étapes</text>
	<text x="228" y="314.8" fill="#000000" font-family="Verdana" font-size="12">résumé</text>
	<text x="228" y="331.8" fill="#000000" font-family="Verdana" font-size="12">image</text>
	<text x="228" y="348.8" fill="#000000" font-family="Verdana" font-size="12">difficulté</text>
	<text x="228" y="365.8" fill="#000000" font-family="Verdana" font-size="12">temps_de_préparation</text>
	<text x="228" y="382.8" fill="#000000" font-family="Verdana" font-size="12">temps_de_cuisson</text>
	<text x="228" y="399.8" fill="#000000" font-family="Verdana" font-size="12">nombre_personne</text>
	<text x="228" y="416.8" fill="#000000" font-family="Verdana" font-size="12">coût_par_personne</text>
</g>

<!-- Entity Contributeur -->
<g id="entity-Contributeur">
	<g id="frame-Contributeur">
		<rect x="391" y="9" width="104" height="25" fill="#dfc27d" stroke="#dfc27d" stroke-width="0"/>
		<rect x="391" y="34.0" width="104" height="145" fill="#f6e8c3" stroke="#f6e8c3" stroke-width="0"/>
		<rect x="391" y="9" width="104" height="170" fill="none" stroke="#bf812d" stroke-width="2"/>
		<line x1="391" y1="34" x2="495" y2="34" stroke="#bf812d" stroke-width="1"/>
	</g>
	<text x="404" y="26.7" fill="#000000" font-family="Verdana" font-size="12">Contributeur</text>
	<text x="396" y="51.7" fill="#000000" font-family="Verdana" font-size="12">id_contributeur</text>
	<line x1="396" y1="54" x2="489" y2="54" stroke="#000000" stroke-width="1"/>
	<text x="396" y="68.7" fill="#000000" font-family="Verdana" font-size="12">prénom</text>
	<text x="396" y="85.7" fill="#000000" font-family="Verdana" font-size="12">nom</text>
	<text x="396" y="102.8" fill="#000000" font-family="Verdana" font-size="12">email</text>
	<text x="396" y="119.8" fill="#000000" font-family="Verdana" font-size="12">mot_de_passe</text>
	<text x="396" y="136.8" fill="#000000" font-family="Verdana" font-size="12">pseudo</text>
	<text x="396" y="153.8" fill="#000000" font-family="Verdana" font-size="12">biographie</text>
	<text x="396" y="170.8" fill="#000000" font-family="Verdana" font-size="12">avatar</text>
</g>

<!-- Entity Commentaire -->
<g id="entity-Commentaire">
	<g id="frame-Commentaire">
		<rect x="515" y="255" width="126" height="25" fill="#dfc27d" stroke="#dfc27d" stroke-width="0"/>
		<rect x="515" y="280.0" width="126" height="93" fill="#f6e8c3" stroke="#f6e8c3" stroke-width="0"/>
		<rect x="515" y="255" width="126" height="118" fill="none" stroke="#bf812d" stroke-width="2"/>
		<line x1="515" y1="280" x2="641" y2="280" stroke="#bf812d" stroke-width="1"/>
	</g>
	<text x="537" y="272.7" fill="#000000" font-family="Verdana" font-size="12">Commentaire</text>
	<text x="520" y="297.7" fill="#000000" font-family="Verdana" font-size="12">id_commentaire</text>
	<line x1="520" y1="300" x2="619" y2="300" stroke="#000000" stroke-width="1"/>
	<text x="520" y="314.8" fill="#000000" font-family="Verdana" font-size="12">message</text>
	<text x="520" y="331.8" fill="#000000" font-family="Verdana" font-size="12">note</text>
	<text x="520" y="348.8" fill="#000000" font-family="Verdana" font-size="12">statut</text>
	<text x="520" y="365.8" fill="#000000" font-family="Verdana" font-size="12">note_commentaire</text>
</g>

<!-- Entity Cuisinier -->
<g id="entity-Cuisinier">
	<g id="frame-Cuisinier">
		<rect x="115" y="449" width="100" height="25" fill="#dfc27d" stroke="#dfc27d" stroke-width="0"/>
		<rect x="115" y="474.0" width="100" height="161" fill="#f6e8c3" stroke="#f6e8c3" stroke-width="0"/>
		<rect x="115" y="449" width="100" height="186" fill="none" stroke="#bf812d" stroke-width="2"/>
		<line x1="115" y1="474" x2="215" y2="474" stroke="#bf812d" stroke-width="1"/>
	</g>
	<text x="138" y="466.7" fill="#000000" font-family="Verdana" font-size="12">Cuisinier</text>
	<text x="120" y="491.7" fill="#000000" font-family="Verdana" font-size="12">id_cuisinier</text>
	<line x1="120" y1="494" x2="189" y2="494" stroke="#000000" stroke-width="1"/>
	<text x="120" y="508.7" fill="#000000" font-family="Verdana" font-size="12">prénom</text>
	<text x="120" y="525.7" fill="#000000" font-family="Verdana" font-size="12">nom</text>
	<text x="120" y="542.8" fill="#000000" font-family="Verdana" font-size="12">email</text>
	<text x="120" y="559.8" fill="#000000" font-family="Verdana" font-size="12">mot_de_passe</text>
	<text x="120" y="576.8" fill="#000000" font-family="Verdana" font-size="12">pseudo</text>
	<text x="120" y="593.8" fill="#000000" font-family="Verdana" font-size="12">biographie</text>
	<text x="120" y="610.8" fill="#000000" font-family="Verdana" font-size="12">avatar</text>
	<text x="120" y="627.8" fill="#000000" font-family="Verdana" font-size="12">url_site</text>
</g>

<!-- Entity Ingrédient -->
<g id="entity-Ingrédient">
	<g id="frame-Ingrédient">
		<rect x="9" y="43" width="90" height="25" fill="#dfc27d" stroke="#dfc27d" stroke-width="0"/>
		<rect x="9" y="68.0" width="90" height="77" fill="#f6e8c3" stroke="#f6e8c3" stroke-width="0"/>
		<rect x="9" y="43" width="90" height="102" fill="none" stroke="#bf812d" stroke-width="2"/>
		<line x1="9" y1="68" x2="99" y2="68" stroke="#bf812d" stroke-width="1"/>
	</g>
	<text x="22" y="60.7" fill="#000000" font-family="Verdana" font-size="12">Ingrédient</text>
	<text x="14" y="85.7" fill="#000000" font-family="Verdana" font-size="12">id_ingrédient</text>
	<line x1="14" y1="88" x2="94" y2="88" stroke="#000000" stroke-width="1"/>
	<text x="14" y="102.8" fill="#000000" font-family="Verdana" font-size="12">nom</text>
	<text x="14" y="119.8" fill="#000000" font-family="Verdana" font-size="12">description</text>
	<text x="14" y="136.8" fill="#000000" font-family="Verdana" font-size="12">saison</text>
</g>

<!-- Entity Type -->
<g id="entity-Type">
	<g id="frame-Type">
		<rect x="539" y="500" width="78" height="25" fill="#dfc27d" stroke="#dfc27d" stroke-width="0"/>
		<rect x="539" y="525.0" width="78" height="59" fill="#f6e8c3" stroke="#f6e8c3" stroke-width="0"/>
		<rect x="539" y="500" width="78" height="84" fill="none" stroke="#bf812d" stroke-width="2"/>
		<line x1="539" y1="525" x2="617" y2="525" stroke="#bf812d" stroke-width="1"/>
	</g>
	<text x="563" y="517.7" fill="#000000" font-family="Verdana" font-size="12">Type</text>
	<text x="544" y="542.8" fill="#000000" font-family="Verdana" font-size="12">id_type</text>
	<line x1="544" y1="545" x2="590" y2="545" stroke="#000000" stroke-width="1"/>
	<text x="544" y="559.8" fill="#000000" font-family="Verdana" font-size="12">nom</text>
	<text x="544" y="576.8" fill="#000000" font-family="Verdana" font-size="12">description</text>
</g>
</svg>